<svg version="1.1" id="Layer_1" xmlns="http://www.w3.org/2000/svg" xmlns:xlink="http://www.w3.org/1999/xlink" x="0px" y="0px"
	 width="100%" viewBox="0 0 1024 1024" enable-background="new 0 0 1024 1024" xml:space="preserve">
<path fill="#198751" opacity="1.000000" stroke="none" 
	d="
M474.906281,701.087524 
	C492.456055,727.554688 517.545532,741.473694 548.136841,743.463440 
	C600.227966,746.851501 643.411560,727.769409 677.061951,687.634155 
	C678.020691,686.490662 678.821106,685.206360 679.619446,683.939819 
	C680.050293,683.256348 680.319763,682.471130 680.741577,681.560181 
	C678.543457,679.410156 675.657349,678.997131 673.137573,677.908264 
	C644.743652,665.638733 625.969360,644.626709 619.555542,614.456360 
	C607.956726,559.895386 644.217651,515.997375 692.112976,507.580963 
	C700.608521,506.088104 700.629761,506.207520 700.628296,497.246735 
	C700.625488,479.928497 701.377014,462.566986 699.547058,445.319153 
	C696.254395,414.283783 685.112488,386.451263 665.197754,362.123383 
	C649.325073,342.733276 629.485962,328.308838 608.665833,314.952789 
	C606.287415,313.427063 603.864258,311.894836 601.765259,310.025055 
	C596.702820,305.515381 595.553040,299.309082 598.481384,293.781494 
	C601.348145,288.369934 608.044312,285.568420 614.311279,287.272675 
	C616.063538,287.749146 617.857361,288.334442 619.408936,289.248566 
	C653.664917,309.431396 683.206238,334.551727 703.232605,369.587494 
	C716.056152,392.022095 723.302979,416.206940 726.419739,441.799774 
	C728.785156,461.223114 728.352905,480.702850 728.128052,500.164978 
	C728.059631,506.090515 729.664246,508.737183 735.411926,510.756927 
	C767.389893,521.994141 787.921387,544.074219 795.382019,577.329407 
	C805.004456,620.220581 780.417053,663.641968 738.874695,678.154297 
	C732.092896,680.523499 725.176392,682.310059 718.060425,683.214600 
	C716.019592,683.474060 714.741028,684.255554 713.736816,686.018372 
	C691.036194,725.867676 655.372559,748.871948 613.161560,763.376465 
	C585.885742,772.748962 557.760010,777.087952 529.014404,778.500366 
	C488.286865,780.501465 448.559692,775.774048 410.393341,761.155579 
	C379.106171,749.171875 351.458130,731.300720 326.952118,708.267822 
	C300.856201,683.740601 280.185638,655.490295 265.213776,623.044128 
	C253.476715,597.608154 246.474991,570.877869 243.580093,543.000854 
	C237.756119,486.917633 249.935532,434.574066 275.966583,385.060760 
	C278.593842,380.063477 281.239777,375.009247 286.743225,372.322662 
	C292.167877,369.674530 297.664307,370.326569 301.989227,374.406189 
	C306.013580,378.202271 307.319061,383.765106 304.665192,388.994568 
	C299.014099,400.130127 292.997528,411.068451 288.067200,422.573029 
	C274.412903,454.434631 268.068878,487.657532 269.109283,522.286438 
	C271.429901,599.525574 305.793518,659.983459 366.411041,706.252380 
	C395.236877,728.254883 428.016815,741.693481 463.868134,747.462891 
	C467.145752,747.990356 470.455505,748.338440 473.760620,748.665649 
	C475.208099,748.808899 476.681519,748.689819 479.123505,748.689819 
	C472.518860,742.647766 466.317230,737.404480 461.149048,731.171631 
	C446.613770,713.641846 437.142883,694.188293 437.587250,670.718689 
	C437.896332,654.393372 437.577393,638.056702 437.603699,621.725220 
	C437.608276,618.896240 437.621979,616.656982 433.867310,615.952637 
	C386.273895,607.024841 359.269043,575.104919 342.007263,532.781494 
	C329.495850,502.105408 323.445831,469.811737 318.434113,437.172119 
	C312.601776,399.188416 313.628235,360.993561 315.186707,323.019653 
	C316.742249,285.116516 344.949066,258.502319 374.703857,253.908707 
	C377.792480,253.431854 379.279724,251.643082 381.018005,249.639709 
	C395.398224,233.066177 421.348236,235.281174 431.916168,253.961655 
	C442.114258,271.988373 429.491852,295.056274 408.787872,296.317291 
	C397.196259,297.023285 387.423157,293.378082 380.130859,284.204681 
	C378.252075,281.841248 376.502563,281.878815 374.105560,282.645294 
	C358.455688,287.649567 349.251038,298.862518 344.497772,314.000214 
	C342.152344,321.469604 341.332153,329.297729 341.356232,337.173737 
	C341.417328,357.160980 340.677521,377.186401 342.419739,397.115112 
	C346.594788,444.871948 354.298431,491.873413 375.688843,535.473022 
	C388.588928,561.766846 408.179718,580.732788 437.692078,586.681458 
	C461.792297,591.539368 483.572845,584.966675 502.695801,569.754211 
	C520.016296,555.975647 529.664246,536.997864 537.338867,516.898621 
	C548.904785,486.608521 555.438843,455.103241 559.834656,423.042175 
	C564.057983,392.238556 564.203247,361.294739 563.463257,330.363373 
	C562.971802,309.820099 554.103271,293.434937 534.781189,284.163391 
	C527.557312,280.697083 527.454590,280.911377 522.504700,286.788513 
	C515.100952,295.579132 499.787842,299.008484 488.006226,294.514465 
	C476.861908,290.263611 468.585693,278.588806 468.918579,267.588470 
	C469.307800,254.726440 477.083801,244.466431 489.856110,239.962479 
	C501.184753,235.967621 515.269592,239.688675 522.928589,249.158691 
	C525.295837,252.085709 527.881836,253.572540 531.465149,254.414948 
	C564.012573,262.066589 587.273926,288.145935 590.267700,321.403259 
	C592.464417,345.806213 591.547913,370.313171 590.480652,394.776550 
	C589.377380,420.064819 586.152710,445.109619 581.282349,469.917908 
	C575.422913,499.763885 567.202759,528.969360 552.042603,555.554016 
	C534.182739,586.872559 509.177673,609.354187 472.193420,615.414429 
	C467.562714,616.173218 466.011169,618.074097 466.111145,622.893860 
	C466.435822,638.552002 466.308868,654.222168 466.172424,669.886169 
	C466.075256,681.038147 469.247559,691.206177 474.906281,701.087524 
M652.702087,617.777771 
	C664.600464,644.421814 691.875793,658.712708 719.146667,652.591370 
	C750.515564,645.550171 771.048279,615.397644 765.373718,585.151001 
	C758.115479,546.462708 710.481873,519.464050 670.702881,549.146790 
	C652.196289,562.956238 642.271545,591.666260 652.702087,617.777771 
z"/>
<path fill="#ffffff" opacity="1.000000" stroke="none" 
	d="
M724.108643,553.602417 
	C745.428650,562.945679 756.197998,583.171387 751.417419,604.304077 
	C746.568665,625.737915 726.781799,640.966614 704.683838,640.272034 
	C684.716187,639.644409 666.060547,623.091125 662.718079,603.035522 
	C658.591736,578.276367 673.561951,556.008911 698.215576,551.173706 
	C706.717346,549.506348 715.470581,550.044312 724.108643,553.602417 
M700.172302,596.490356 
	C700.171997,599.482849 700.148682,602.475586 700.176270,605.467834 
	C700.229248,611.213806 702.012451,613.532288 706.496643,613.748108 
	C711.154907,613.972290 714.402832,610.941040 714.544128,605.614319 
	C714.768799,597.143066 714.771301,588.661987 713.958252,580.204773 
	C713.505249,575.492126 710.454651,574.146729 706.334412,574.241638 
	C702.297607,574.334595 700.252319,576.510742 700.219238,580.531738 
	C700.178223,585.519043 700.182678,590.506714 700.172302,596.490356 
z"/>
</svg>